<svg height="512" width="512" xmlns="http://www.w3.org/2000/svg" data-name="Line cutting stroke ex"><path d="M56 206a22.025 22.025 0 0122-22h84a22.025 22.025 0 0122 22v42h16v-42a38.043 38.043 0 00-38-38h-2v-46a18.02 18.02 0 00-18-18H98a18.02 18.02 0 00-18 18v46h-2a38.043 38.043 0 00-38 38v50h16zm40-84a2.002 2.002 0 012-2h44a2.002 2.002 0 012 2v46H96z"/><path d="M168 256v-30a18.02 18.02 0 00-18-18H90a18.02 18.02 0 00-18 18v30h16v-30a2.002 2.002 0 012-2h60a2.002 2.002 0 012 2v30zM72 416a24 24 0 1024 24 24.027 24.027 0 00-24-24zm0 32a8 8 0 118-8 8.01 8.01 0 01-8 8zm120.68-284.772a8.004 8.004 0 004.79 4.362l24 8a8 8 0 008.55-2.322L272 125.29v16.187l-54.554 77.934A8 8 0 00216 224v24h16v-21.479L284.165 152h37.883L344 225.174V256h16v-32a8.008 8.008 0 00-.337-2.299L336 142.826v-30.849q0-.08-.002-.158v-.038a8.996 8.996 0 00-.007-.164l-.004-.071-.006-.093a8.736 8.736 0 00-.015-.187l-.001-.017a7.952 7.952 0 00-1.08-3.325l-31.94-55.893A8 8 0 00296 48h-96a8 8 0 00-8 8v24a8 8 0 005.47 7.59l11.716 3.905-.614 1.534a8 8 0 005.487 10.732l1.963.49-23.333 52.5a8 8 0 00-.009 6.477zM288 136v-16h32v16zm-50.584-72h53.941l22.857 40h-33.23l-54.153-13.538zM208 74.233V64h12.184l-5.045 12.613zm23.78 33.958l27.835 6.958-38.132 43.58-10.594-3.532z"/><path d="M494.656 411.563l-45.031-67.547A17.964 17.964 0 00434.648 336H424V88h-16v248h-16V34a2.002 2.002 0 012-2h12a2.002 2.002 0 012 2v38h16V34a18.02 18.02 0 00-18-18h-12a18.02 18.02 0 00-18 18v238h-88a8 8 0 00-8-8H144a8 8 0 00-8 8H24a8 8 0 00-8 8v12a28.031 28.031 0 0028 28h4v32h16v-32h72v96a8 8 0 008 8h96v-16h-88v-24h120v24h-16v16h24a8 8 0 008-8v-96h88v16h-10.648a17.964 17.964 0 00-14.977 8.016l-45.031 67.546A7.998 7.998 0 00304 416v64H111.154A55.997 55.997 0 0064 384.57V368H48v21.408A55.998 55.998 0 0072 496q2.017 0 4-.142V496h412a8 8 0 008-8v-72a7.998 7.998 0 00-1.344-4.438zM272 280v56H152v-56zM44 304a12.013 12.013 0 01-12-12v-4h104v16zm108 64v-16h120v16zm136-64v-16h88v16zM32 440a40 40 0 1140 40 40.045 40.045 0 01-40-40zm331.688-87.11a1.997 1.997 0 011.664-.89h69.296a1.997 1.997 0 011.664.89L478.385 416h-156.77zM448 480v-32h-16v32h-24v-32h-16v32h-24v-32h-16v32h-32v-48h160v48z"/><path d="M368 376h16v16h-16zm48 0h16v16h-16zm40-248h16v16h-16zm0 32h16v16h-16zm-16-16h16v16h-16zm32 0h16v16h-16zM56 40h16v16H56zm0 32h16v16H56zM40 56h16v16H40zm32 0h16v16H72z"/></svg>